REM DIRINDEX 1\2,1\3,1\4
REM DIRNAME folder01,folder02,folder03,folder04
TITLE ""
FILE "084 084_TOEFL_3900.mp3" MP3
  TRACK 01 AUDIO
    TITLE "2:cjc151_3648"
    INDEX 01 00:00:00
  TRACK 02 AUDIO
    TITLE "0:"
    INDEX 01 00:01:11
  TRACK 03 AUDIO
    TITLE "3:cjc151_3649"
    INDEX 01 00:02:65
  TRACK 04 AUDIO
    TITLE "0:"
    INDEX 01 00:06:04
  TRACK 05 AUDIO
    TITLE "2:cjc151_3650"
    INDEX 01 00:07:58
  TRACK 06 AUDIO
    TITLE "0:"
    INDEX 01 00:09:00
  TRACK 07 AUDIO
    TITLE "3:cjc151_3651"
    INDEX 01 00:10:53
  TRACK 08 AUDIO
    TITLE "0:"
    INDEX 01 00:14:11
  TRACK 09 AUDIO
    TITLE "2:cjc151_3652"
    INDEX 01 00:15:66
  TRACK 10 AUDIO
    TITLE "0:"
    INDEX 01 00:16:55
  TRACK 11 AUDIO
    TITLE "3:cjc151_3653"
    INDEX 01 00:18:33
  TRACK 12 AUDIO
    TITLE "0:"
    INDEX 01 00:22:15
  TRACK 13 AUDIO
    TITLE "2:cjc151_3654"
    INDEX 01 00:23:67
  TRACK 14 AUDIO
    TITLE "0:"
    INDEX 01 00:25:01
  TRACK 15 AUDIO
    TITLE "3:cjc151_3655"
    INDEX 01 00:26:73
  TRACK 16 AUDIO
    TITLE "0:"
    INDEX 01 00:30:08
  TRACK 17 AUDIO
    TITLE "2:cjc151_3656"
    INDEX 01 00:31:61
  TRACK 18 AUDIO
    TITLE "0:"
    INDEX 01 00:32:70
  TRACK 19 AUDIO
    TITLE "3:cjc151_3657"
    INDEX 01 00:34:47
  TRACK 20 AUDIO
    TITLE "0:"
    INDEX 01 00:37:63
  TRACK 21 AUDIO
    TITLE "2:cjc151_3658"
    INDEX 01 00:39:51
  TRACK 22 AUDIO
    TITLE "0:"
    INDEX 01 00:40:46
  TRACK 23 AUDIO
    TITLE "3:cjc151_3659"
    INDEX 01 00:42:25
  TRACK 24 AUDIO
    TITLE "0:"
    INDEX 01 00:46:27
  TRACK 25 AUDIO
    TITLE "2:cjc151_3660"
    INDEX 01 00:48:06
  TRACK 26 AUDIO
    TITLE "0:"
    INDEX 01 00:50:39
  TRACK 27 AUDIO
    TITLE "3:cjc151_3661"
    INDEX 01 00:52:18
  TRACK 28 AUDIO
    TITLE "0:"
    INDEX 01 00:56:49
  TRACK 29 AUDIO
    TITLE "2:cjc151_3662"
    INDEX 01 00:58:24
  TRACK 30 AUDIO
    TITLE "0:"
    INDEX 01 00:59:34
  TRACK 31 AUDIO
    TITLE "3:cjc151_3663"
    INDEX 01 01:01:13
  TRACK 32 AUDIO
    TITLE "0:"
    INDEX 01 01:04:60
  TRACK 33 AUDIO
    TITLE "2:cjc151_3664"
    INDEX 01 01:06:36
  TRACK 34 AUDIO
    TITLE "0:"
    INDEX 01 01:07:57
  TRACK 35 AUDIO
    TITLE "3:cjc151_3665"
    INDEX 01 01:09:30
  TRACK 36 AUDIO
    TITLE "0:"
    INDEX 01 01:13:08
  TRACK 37 AUDIO
    TITLE "2:cjc151_3666"
    INDEX 01 01:14:65
  TRACK 38 AUDIO
    TITLE "0:"
    INDEX 01 01:15:60
  TRACK 39 AUDIO
    TITLE "3:cjc151_3667"
    INDEX 01 01:17:39
  TRACK 40 AUDIO
    TITLE "0:"
    INDEX 01 01:21:20
  TRACK 41 AUDIO
    TITLE "2:cjc151_3668"
    INDEX 01 01:22:74
  TRACK 42 AUDIO
    TITLE "0:"
    INDEX 01 01:24:16
  TRACK 43 AUDIO
    TITLE "3:cjc151_3669"
    INDEX 01 01:25:70
  TRACK 44 AUDIO
    TITLE "0:"
    INDEX 01 01:30:34
  TRACK 45 AUDIO
    TITLE "2:cjc151_3670"
    INDEX 01 01:32:21
  TRACK 46 AUDIO
    TITLE "0:"
    INDEX 01 01:33:33
  TRACK 47 AUDIO
    TITLE "3:cjc151_3671"
    INDEX 01 01:35:06
  TRACK 48 AUDIO
    TITLE "0:"
    INDEX 01 01:39:00
  TRACK 49 AUDIO
    TITLE "2:cjc151_3672"
    INDEX 01 01:40:52
  TRACK 50 AUDIO
    TITLE "0:"
    INDEX 01 01:41:57
  TRACK 51 AUDIO
    TITLE "3:cjc151_3673"
    INDEX 01 01:43:37
  TRACK 52 AUDIO
    TITLE "0:"
    INDEX 01 01:46:66
  TRACK 53 AUDIO
    TITLE "2:cjc151_3674"
    INDEX 01 01:48:44
  TRACK 54 AUDIO
    TITLE "0:"
    INDEX 01 01:49:57
  TRACK 55 AUDIO
    TITLE "3:cjc151_3675"
    INDEX 01 01:51:36
  TRACK 56 AUDIO
    TITLE "0:"
    INDEX 01 01:55:44
  TRACK 57 AUDIO
    TITLE "2:cjc151_3676"
    INDEX 01 01:57:21
  TRACK 58 AUDIO
    TITLE "0:"
    INDEX 01 01:58:17
  TRACK 59 AUDIO
    TITLE "3:cjc151_3677"
    INDEX 01 01:59:71
  TRACK 60 AUDIO
    TITLE "0:"
    INDEX 01 02:03:45
  TRACK 61 AUDIO
    TITLE "2:cjc151_3678"
    INDEX 01 02:05:25
  TRACK 62 AUDIO
    TITLE "0:"
    INDEX 01 02:06:28
  TRACK 63 AUDIO
    TITLE "3:cjc151_3679"
    INDEX 01 02:08:07
  TRACK 64 AUDIO
    TITLE "0:"
    INDEX 01 02:11:63
  TRACK 65 AUDIO
    TITLE "2:cjc151_3680"
    INDEX 01 02:13:40
  TRACK 66 AUDIO
    TITLE "0:"
    INDEX 01 02:14:35
  TRACK 67 AUDIO
    TITLE "3:cjc151_3681"
    INDEX 01 02:16:09
  TRACK 68 AUDIO
    TITLE "0:"
    INDEX 01 02:19:31
  TRACK 69 AUDIO
    TITLE "2:cjc151_3682"
    INDEX 01 02:21:06
  TRACK 70 AUDIO
    TITLE "0:"
    INDEX 01 02:22:17
  TRACK 71 AUDIO
    TITLE "3:cjc151_3683"
    INDEX 01 02:23:64
  TRACK 72 AUDIO
    TITLE "0:"
    INDEX 01 02:27:52
  TRACK 73 AUDIO
    TITLE "2:cjc151_3684"
    INDEX 01 02:29:33
  TRACK 74 AUDIO
    TITLE "0:"
    INDEX 01 02:30:50
  TRACK 75 AUDIO
    TITLE "3:cjc151_3685"
    INDEX 01 02:32:24
  TRACK 76 AUDIO
    TITLE "0:"
    INDEX 01 02:36:13
  TRACK 77 AUDIO
    TITLE "2:cjc151_3686"
    INDEX 01 02:37:68
  TRACK 78 AUDIO
    TITLE "0:"
    INDEX 01 02:39:00
  TRACK 79 AUDIO
    TITLE "3:cjc151_3687"
    INDEX 01 02:40:48
  TRACK 80 AUDIO
    TITLE "0:"
    INDEX 01 02:44:38
  TRACK 81 AUDIO
    TITLE "2:cjc151_3688"
    INDEX 01 02:46:20
  TRACK 82 AUDIO
    TITLE "0:"
    INDEX 01 02:47:25
  TRACK 83 AUDIO
    TITLE "3:cjc151_3689"
    INDEX 01 02:48:72
  TRACK 84 AUDIO
    TITLE "0:"
    INDEX 01 02:51:54
  TRACK 85 AUDIO
    TITLE "2:cjc151_3690"
    INDEX 01 02:53:35
  TRACK 86 AUDIO
    TITLE "0:"
    INDEX 01 02:54:29
  TRACK 87 AUDIO
    TITLE "3:cjc151_3691"
    INDEX 01 02:56:08
  TRACK 88 AUDIO
    TITLE "0:"
    INDEX 01 02:59:24
